HIERARCHY
ROOT joint_Root
{
	OFFSET 0.0 0.0 0.0
	CHANNELS 6 Xposition Yposition Zposition Zrotation Xrotation Yrotation 
	JOINT Hips
	{
		OFFSET 4.5925 91.4895 -427.239
		CHANNELS 6 Xposition Yposition Zposition Zrotation Xrotation Yrotation 
		JOINT Spine
		{
			OFFSET 15.7357 0.0 0.0
			CHANNELS 6 Xposition Yposition Zposition Zrotation Xrotation Yrotation 
			JOINT Chest
			{
				OFFSET 8.98455 -0.406207 0.0
				CHANNELS 6 Xposition Yposition Zposition Zrotation Xrotation Yrotation 
				JOINT Neck
				{
					OFFSET 16.3773 0.0 0.0
					CHANNELS 6 Xposition Yposition Zposition Zrotation Xrotation Yrotation 
					JOINT Head
					{
						OFFSET 6.45672 0.0 0.0
						CHANNELS 6 Xposition Yposition Zposition Zrotation Xrotation Yrotation 
						End Site
						{
							OFFSET 0.0 0.0 0.0
						}
					}
				}
				JOINT Shoulder_L
				{
					OFFSET 12.9942 -0.242716 4.98039
					CHANNELS 6 Xposition Yposition Zposition Zrotation Xrotation Yrotation 
					JOINT UpperArm_L
					{
						OFFSET 5.34809 0.0 0.0
						CHANNELS 6 Xposition Yposition Zposition Zrotation Xrotation Yrotation 
						JOINT LowerArm_L
						{
							OFFSET 24.3286 1.87007e-05 0.0
							CHANNELS 6 Xposition Yposition Zposition Zrotation Xrotation Yrotation 
							JOINT Hand_L
							{
								OFFSET 22.2916 0.0 0.0
								CHANNELS 6 Xposition Yposition Zposition Zrotation Xrotation Yrotation 
								End Site
								{
									OFFSET 0.0 0.0 0.0
								}
							}
						}
					}
				}
				JOINT Shoulder_R
				{
					OFFSET 12.9945 -0.242716 -4.98039
					CHANNELS 6 Xposition Yposition Zposition Zrotation Xrotation Yrotation 
					JOINT UpperArm_R
					{
						OFFSET -5.34813 0.0 0.0
						CHANNELS 6 Xposition Yposition Zposition Zrotation Xrotation Yrotation 
						JOINT LowerArm_R
						{
							OFFSET -24.3289 0.000322201 0.0
							CHANNELS 6 Xposition Yposition Zposition Zrotation Xrotation Yrotation 
							JOINT Hand_R
							{
								OFFSET -22.2915 -0.000108084 0.0
								CHANNELS 6 Xposition Yposition Zposition Zrotation Xrotation Yrotation 
								End Site
								{
									OFFSET 0.0 0.0 0.0
								}
							}
						}
					}
				}
			}
		}
		JOINT UpperLeg_L
		{
			OFFSET -2.19248 -6.46944 0.0
			CHANNELS 6 Xposition Yposition Zposition Zrotation Xrotation Yrotation 
			JOINT LowerLeg_L
			{
				OFFSET 39.0811 0.0 -1.23785e-05
				CHANNELS 6 Xposition Yposition Zposition Zrotation Xrotation Yrotation 
				JOINT Foot_L
				{
					OFFSET 40.9854 0.0 -1.26872e-05
					CHANNELS 6 Xposition Yposition Zposition Zrotation Xrotation Yrotation 
					JOINT Toes_L
					{
						OFFSET 11.7543 0.0 0.0
						CHANNELS 6 Xposition Yposition Zposition Zrotation Xrotation Yrotation 
						End Site
						{
							OFFSET 0.0 0.0 0.0
						}
					}
				}
			}
		}
		JOINT UpperLeg_R
		{
			OFFSET -2.19251 6.46944 0.0
			CHANNELS 6 Xposition Yposition Zposition Zrotation Xrotation Yrotation 
			JOINT LowerLeg_R
			{
				OFFSET -39.0811 -0.00228153 -0.0401928
				CHANNELS 6 Xposition Yposition Zposition Zrotation Xrotation Yrotation 
				JOINT Foot_R
				{
					OFFSET -40.9854 0.0 0.0
					CHANNELS 6 Xposition Yposition Zposition Zrotation Xrotation Yrotation 
					JOINT Toes_R
					{
						OFFSET -11.7543 0.0 0.0
						CHANNELS 6 Xposition Yposition Zposition Zrotation Xrotation Yrotation 
						End Site
						{
							OFFSET 0.0 0.0 0.0
						}
					}
				}
			}
		}
	}
}
MOTION
Frames:	8
Frame Time:	0.0333333
0.000000 0.000000 0.000000 0.000000 0.000000 -0.000000 -0.334547 91.648200 -1.497030 88.496900 -5.986330 9.217670 15.735700 0.000005 -0.000001 86.269200 83.579000 -86.026300 8.984550 -0.406207 -0.000000 5.050980 -0.839657 0.522165 16.377300 -0.000001 -0.000001 8.371270 -1.117260 0.049966 6.456720 -0.000001 -0.000000 0.686324 -1.077680 6.198500 12.994200 -0.242716 4.980390 -91.512900 4.798700 -72.478500 5.348090 -0.000007 -0.000001 -66.338500 31.531000 -10.769200 24.328600 0.000019 0.000005 12.266900 29.709400 -23.688000 22.291600 -0.000001 0.000005 6.622660 5.293360 0.257565 12.994500 -0.242716 -4.980390 88.016800 11.285700 -79.965800 -5.348130 -0.000001 -0.000004 -62.642500 31.827700 -8.905330 -24.328900 0.000322 -0.000009 3.181300 9.157920 -19.256300 -22.291500 -0.000108 -0.000004 12.835300 5.416280 -3.474800 -2.192480 -6.469440 -0.000000 -174.074000 -14.559800 1.066730 39.081100 -0.000007 -0.000012 -0.144311 0.284701 26.880000 40.985400 -0.000006 -0.000013 0.416360 4.334610 -68.291700 11.754300 -0.000000 0.000003 -0.000137 -0.001344 -16.628700 -2.192510 6.469440 -0.000001 173.931000 23.796400 -176.955000 -39.081100 -0.002282 -0.040193 -0.168329 0.374347 24.632100 -40.985400 0.000008 0.000006 3.442510 18.736000 -67.658900 -11.754300 -0.000006 -0.000006 -0.001219 -0.018472 -17.324300
0.000000 0.000000 0.000000 0.000000 0.000000 -0.000000 -0.206850 91.676200 -1.540000 88.721600 -6.050730 9.362150 15.735700 0.000005 -0.000001 86.187300 83.585000 -86.025400 8.984550 -0.406207 -0.000000 5.037170 -0.855238 0.361118 16.377300 -0.000001 -0.000001 8.349560 -1.105560 -0.025056 6.456720 -0.000001 -0.000000 0.677666 -1.017590 5.891500 12.994200 -0.242716 4.980390 -91.514200 4.836460 -72.592500 5.348090 -0.000007 -0.000001 -65.319400 31.007100 -11.782500 24.328600 0.000019 0.000005 12.400900 30.307500 -23.543500 22.291600 -0.000001 0.000005 5.162380 5.299070 0.097020 12.994500 -0.242716 -4.980390 88.046800 11.193300 -80.035800 -5.348130 -0.000001 -0.000004 -61.517400 31.640200 -9.884990 -24.328900 0.000322 -0.000009 3.348460 9.503410 -19.518300 -22.291500 -0.000108 -0.000004 12.277900 5.414110 -3.401960 -2.192480 -6.469440 -0.000000 -174.262000 -15.047200 1.346880 39.081100 -0.000007 -0.000012 -0.135438 0.270699 26.580200 40.985400 -0.000006 -0.000013 0.593524 4.672460 -68.141000 11.754300 -0.000000 0.000003 -0.000132 -0.001303 -16.627200 -2.192510 6.469440 -0.000001 173.587000 23.734100 -176.881000 -39.081100 -0.002282 -0.040193 -0.166964 0.371401 24.630300 -40.985400 0.000008 0.000006 3.361300 18.799600 -67.575300 -11.754300 -0.000006 -0.000006 -0.001397 -0.020895 -17.422800
0.000000 0.000000 0.000000 0.000000 0.000000 -0.000000 -0.087857 91.695000 -1.575010 88.909200 -6.099200 9.537110 15.735700 0.000005 -0.000001 86.060100 83.579300 -85.971400 8.984550 -0.406207 -0.000000 5.046160 -0.882647 0.216046 16.377300 -0.000001 -0.000001 8.390710 -1.114620 -0.124226 6.456720 -0.000001 -0.000000 0.659393 -0.930397 5.664450 12.994200 -0.242716 4.980390 -91.526500 4.913890 -72.718700 5.348090 -0.000007 -0.000001 -63.279900 30.439500 -13.720300 24.328600 0.000019 0.000005 13.272000 31.952600 -24.022400 22.291600 -0.000001 0.000005 2.415000 5.307540 -0.138832 12.994500 -0.242716 -4.980390 88.082200 11.020500 -80.064600 -5.348130 -0.000001 -0.000004 -59.839100 30.951700 -11.551200 -24.328900 0.000322 -0.000009 3.499700 9.695600 -19.963300 -22.291500 -0.000108 -0.000004 11.483400 5.405930 -3.129400 -2.192480 -6.469440 -0.000000 -174.380000 -15.524600 1.638270 39.081100 -0.000007 -0.000012 -0.129874 0.262223 26.348400 40.985400 -0.000006 -0.000013 0.768140 5.063760 -68.032300 11.754300 -0.000000 0.000003 -0.000132 -0.001304 -16.627300 -2.192510 6.469440 -0.000001 173.232000 23.768300 -176.756000 -39.081100 -0.002282 -0.040193 -0.166662 0.370412 24.649700 -40.985400 0.000008 0.000006 3.311550 18.969000 -67.521700 -11.754300 -0.000006 -0.000006 -0.001254 -0.018952 -17.343800
0.000000 0.000000 0.000000 0.000000 0.000000 -0.000000 0.015157 91.708700 -1.696110 89.045600 -6.028040 9.605810 15.735700 0.000005 -0.000001 85.702900 83.632300 -85.680800 8.984550 -0.406207 -0.000000 4.934260 -0.952887 0.085225 16.377300 -0.000001 -0.000001 8.520650 -1.162310 -0.222199 6.456720 -0.000001 -0.000000 0.825230 -0.868039 5.507750 12.994200 -0.242716 4.980390 -91.523500 4.958590 -72.897000 5.348090 -0.000007 -0.000001 -60.478000 29.272800 -16.361000 24.328600 0.000019 0.000005 14.253900 33.176200 -24.902500 22.291600 -0.000001 0.000005 -0.510007 5.309480 -0.194554 12.994500 -0.242716 -4.980390 88.133000 10.748800 -80.085900 -5.348130 -0.000001 -0.000004 -57.756700 29.658200 -13.797500 -24.328900 0.000322 -0.000009 3.616290 9.729830 -20.509100 -22.291500 -0.000108 -0.000004 10.680500 5.393510 -2.726970 -2.192480 -6.469440 -0.000000 -174.518000 -15.836700 1.656090 39.081100 -0.000007 -0.000012 -0.123201 0.249868 26.246400 40.985400 -0.000006 -0.000013 0.926241 5.381260 -67.901300 11.754300 -0.000000 0.000003 -0.000140 -0.001374 -16.629900 -2.192510 6.469440 -0.000001 173.027000 23.855400 -176.821000 -39.081100 -0.002282 -0.040193 -0.163648 0.362737 24.715900 -40.985400 0.000008 0.000006 3.273960 19.016100 -67.441300 -11.754300 -0.000006 -0.000006 -0.001220 -0.018489 -17.325000
0.000000 0.000000 0.000000 0.000000 0.000000 -0.000000 0.095530 91.725700 -1.791400 89.195300 -5.868440 9.783260 15.735700 0.000005 -0.000001 85.163000 83.662200 -85.217600 8.984550 -0.406207 -0.000000 4.864490 -1.065350 -0.063728 16.377300 -0.000001 -0.000001 8.707530 -1.231770 -0.319239 6.456720 -0.000001 -0.000000 1.122500 -0.826865 5.397970 12.994200 -0.242716 4.980390 -91.492400 4.901500 -73.042800 5.348090 -0.000007 -0.000001 -57.497200 27.018900 -19.379900 24.328600 0.000019 0.000005 14.960300 33.282000 -25.962600 22.291600 -0.000001 0.000005 -1.371700 5.311250 -0.245412 12.994500 -0.242716 -4.980390 88.185500 10.444300 -80.087600 -5.348130 -0.000001 -0.000004 -55.314700 27.634100 -16.495700 -24.328900 0.000322 -0.000009 3.916610 10.031800 -21.461400 -22.291500 -0.000108 -0.000004 10.301900 5.382820 -2.387150 -2.192480 -6.469440 -0.000000 -174.631000 -16.047300 1.824810 39.081100 -0.000007 -0.000012 -0.121526 0.248152 26.092100 40.985400 -0.000006 -0.000013 1.066190 5.715990 -67.760800 11.754300 -0.000000 0.000003 -0.000129 -0.001282 -16.626500 -2.192510 6.469440 -0.000001 172.754000 23.939000 -176.713000 -39.081100 -0.002282 -0.040193 -0.161594 0.357845 24.741900 -40.985400 0.000008 0.000006 3.226240 19.030500 -67.371300 -11.754300 -0.000006 -0.000006 -0.001301 -0.019595 -17.369900
0.000000 0.000000 0.000000 0.000000 0.000000 -0.000000 0.155652 91.737200 -1.933590 89.267900 -5.741930 9.879720 15.735700 0.000005 -0.000001 84.787000 83.737400 -84.888200 8.984550 -0.406207 -0.000000 4.707100 -1.133220 -0.155526 16.377300 -0.000001 -0.000001 9.027740 -1.299850 -0.389628 6.456720 -0.000001 -0.000000 1.471790 -0.828726 5.226990 12.994200 -0.242716 4.980390 -91.445000 4.792390 -73.199200 5.348090 -0.000007 -0.000001 -54.714100 23.522300 -22.477100 24.328600 0.000019 0.000005 15.457300 32.279900 -27.374100 22.291600 -0.000001 0.000005 -0.281472 5.311430 -0.248931 12.994500 -0.242716 -4.980390 88.238600 10.095200 -80.049500 -5.348130 -0.000001 -0.000004 -52.677400 24.941400 -19.442000 -24.328900 0.000322 -0.000009 4.103540 9.718830 -23.031100 -22.291500 -0.000108 -0.000004 10.265400 5.376830 -2.199030 -2.192480 -6.469440 -0.000000 -174.721000 -16.149800 1.817310 39.081100 -0.000007 -0.000012 -0.114596 0.234429 26.051000 40.985400 -0.000006 -0.000013 1.171810 5.914370 -67.638600 11.754300 -0.000000 0.000003 -0.000131 -0.001296 -16.627000 -2.192510 6.469440 -0.000001 172.632000 23.923500 -176.713000 -39.081100 -0.002282 -0.040193 -0.165972 0.367019 24.761300 -40.985400 0.000008 0.000006 3.158900 18.934300 -67.275800 -11.754300 -0.000006 -0.000006 -0.001525 -0.022610 -17.492500
0.000000 0.000000 0.000000 0.000000 0.000000 -0.000000 0.214777 91.746000 -2.075250 89.319900 -5.614870 9.974600 15.735700 0.000005 -0.000001 84.432000 83.810300 -84.571700 8.984550 -0.406207 -0.000000 4.554370 -1.195120 -0.231626 16.377300 -0.000001 -0.000001 9.418940 -1.346930 -0.487436 6.456720 -0.000001 -0.000000 1.865520 -0.817955 5.142500 12.994200 -0.242716 4.980390 -91.395700 4.638340 -73.232400 5.348090 -0.000007 -0.000001 -52.128400 19.279700 -25.772700 24.328600 0.000019 0.000005 16.207300 30.815500 -29.571000 22.291600 -0.000001 0.000005 0.690720 5.311710 -0.257605 12.994500 -0.242716 -4.980390 88.288300 9.732640 -79.975100 -5.348130 -0.000001 -0.000004 -50.066500 21.493000 -22.631300 -24.328900 0.000322 -0.000009 4.159130 8.951650 -25.055300 -22.291500 -0.000108 -0.000004 10.313900 5.376060 -2.174930 -2.192480 -6.469440 -0.000000 -174.800000 -16.152300 1.813190 39.081100 -0.000007 -0.000012 -0.114070 0.233604 26.026700 40.985400 -0.000006 -0.000013 1.248780 6.029640 -67.538100 11.754300 -0.000000 0.000003 -0.000131 -0.001294 -16.626900 -2.192510 6.469440 -0.000001 172.527000 24.029100 -176.730000 -39.081100 -0.002282 -0.040193 -0.164837 0.363877 24.802100 -40.985400 0.000008 0.000006 3.138530 18.928000 -67.185500 -11.754300 -0.000006 -0.000006 -0.001558 -0.023039 -17.510000
0.000000 0.000000 0.000000 0.000000 0.000000 -0.000000 0.262915 91.748700 -2.182450 89.338500 -5.553160 10.142300 15.735700 0.000005 -0.000001 84.453700 83.884900 -84.619300 8.984550 -0.406207 -0.000000 4.406070 -1.175220 -0.285583 16.377300 -0.000001 -0.000001 10.001500 -1.387140 -0.496987 6.456720 -0.000001 -0.000000 2.275840 -0.829436 4.961630 12.994200 -0.242716 4.980390 -91.301300 4.338050 -73.284600 5.348090 -0.000007 -0.000001 -49.875800 14.686500 -29.175900 24.328600 0.000019 0.000005 17.104600 29.111700 -32.314500 22.291600 -0.000001 0.000005 1.146640 5.314000 -0.322921 12.994500 -0.242716 -4.980390 88.345900 9.287780 -79.855500 -5.348130 -0.000001 -0.000004 -47.590600 17.682500 -25.932400 -24.328900 0.000322 -0.000009 4.128910 7.969980 -27.510000 -22.291500 -0.000108 -0.000004 10.444200 5.371250 -2.025680 -2.192480 -6.469440 -0.000000 -174.795000 -16.237600 1.886260 39.081100 -0.000007 -0.000012 -0.111188 0.227463 26.050300 40.985400 -0.000006 -0.000013 1.322020 6.160780 -67.473400 11.754300 -0.000000 0.000003 -0.000140 -0.001368 -16.629700 -2.192510 6.469440 -0.000001 172.437000 24.038300 -176.641000 -39.081100 -0.002282 -0.040193 -0.163834 0.361169 24.834600 -40.985400 0.000008 0.000006 3.115040 18.897500 -67.120100 -11.754300 -0.000006 -0.000006 -0.001604 -0.023651 -17.534800
